#!OML:ASF F:\VICON\USERDATA\INSTALL\rory3\rory3.ASF
:FULLY-SPECIFIED
:DEGREES
115
root 4.66386 17.5606 2.07616 18.477 1.65922 -1.72007
lowerback -9.12416 1.57776 14.1928
upperback -12.7939 1.65262 0.172311
thorax -8.55486 -0.439458 -7.69922
lowerneck -2.11061 17.8622 10.998
upperneck 8.93383 22.9857 4.41959
head 4.09674 11.8865 0.853484
rclavicle -5.1684e-015 1.35174e-014
rhumerus 2.2151 -25.2549 26.7874
rradius 117.505
rwrist -68.6901
rhand -2.84252 -43.7264
rfingers 7.12502
rthumb 22.8651 -72.3909
lclavicle -5.1684e-015 1.35174e-014
lhumerus 35.2512 34.1579 -8.55641
lradius 29.2583
lwrist 31.9131
lhand -26.7989 -18.6086
lfingers 7.12502
lthumb -0.225868 11.3711
rfemur -6.00214 10.4699 -3.07162
rtibia 18.0421
rfoot 19.7125 -19.5398
rtoes -12.3252
lfemur -15.9223 1.03856 -28.8084
ltibia 13.2388
lfoot -13.6029 7.34024
ltoes 7.89175
116
root 4.66556 17.5622 2.0622 18.4654 1.63217 -1.57043
lowerback -9.01275 1.53451 13.9799
upperback -12.7496 1.61708 0.171546
thorax -8.566 -0.43671 -7.58419
lowerneck -2.05158 17.8198 11.064
upperneck 8.87781 22.9532 4.20116
head 4.10422 11.8619 0.77157
rclavicle -2.38542e-015 4.77083e-015
rhumerus 2.17246 -25.3171 26.7125
rradius 117.563
rwrist -68.5923
rhand -2.95179 -43.717
rfingers 7.12502
rthumb 22.7602 -72.3944
lclavicle -2.38542e-015 4.77083e-015
lhumerus 35.4163 34.401 -8.21443
lradius 29.2119
lwrist 31.5776
lhand -27.0871 -18.6782
lfingers 7.12502
lthumb -0.504215 11.3009
rfemur -6.21788 10.3144 -3.24593
rtibia 18.3522
rfoot 20.3286 -18.7996
rtoes -13.7927
lfemur -15.9245 1.10327 -28.9863
ltibia 13.0953
lfoot -13.4364 7.22503
ltoes 7.97085
117
root 4.66955 17.5635 2.05054 18.4239 1.63942 -1.58701
lowerback -8.88742 1.51377 14.0023
upperback -12.7093 1.6076 0.193794
thorax -8.59351 -0.442045 -7.57451
lowerneck -2.01288 17.7797 11.0478
upperneck 8.83845 22.9157 4.09685
head 4.09388 11.8377 0.733501
rclavicle 1.33186e-014 1.59028e-015
rhumerus 2.12574 -25.3768 26.6727
rradius 117.597
rwrist -68.5751
rhand -2.81022 -43.6192
rfingers 7.12502
rthumb 22.8961 -72.2799
lclavicle 1.33186e-014 1.59028e-015
lhumerus 35.4309 34.3973 -8.09176
lradius 29.2792
lwrist 31.4636
lhand -28.2462 -18.624
lfingers 7.12502
lthumb -1.62367 11.3496
rfemur -6.31921 10.1922 -3.2226
rtibia 18.5538
rfoot 20.7925 -18.2194
rtoes -15.309
lfemur -15.9032 1.21452 -29.0043
ltibia 13.0465
lfoot -13.3193 7.11307
ltoes 7.78937
118
root 4.6734 17.5621 2.04262 18.3846 1.65826 -1.7096
lowerback -8.8496 1.5231 14.1216
upperback -12.6481 1.62067 0.25311
thorax -8.54525 -0.436052 -7.57552
lowerneck -2.20467 17.7204 10.9751
upperneck 9.04698 22.8099 4.08994
head 4.19447 11.7907 0.768273
rclavicle 1.07344e-014 -1.27222e-014
rhumerus 2.05202 -25.3042 26.6716
rradius 117.609
rwrist -68.4023
rhand -2.95285 -43.357
rfingers 7.12502
rthumb 22.7592 -72.0346
lclavicle 1.07344e-014 -1.27222e-014
lhumerus 35.0392 34.1222 -8.53921
lradius 29.5046
lwrist 31.9826
lhand -28.7071 -18.2959
lfingers 7.12502
lthumb -2.06884 11.6738
rfemur -6.34603 10.1106 -3.08562
rtibia 18.6671
rfoot 21.0821 -17.7227
rtoes -16.3161
lfemur -15.8988 1.31275 -28.9076
ltibia 13.1163
lfoot -13.3656 7.04162
ltoes 7.64061
119
root 4.67814 17.561 2.03514 18.4085 1.68892 -1.76623
lowerback -8.954 1.52227 14.1624
upperback -12.5403 1.5936 0.304015
thorax -8.36733 -0.43209 -7.54041
lowerneck -2.41576 17.6618 10.9692
upperneck 9.2556 22.7067 3.98963
head 4.32181 11.7426 0.771705
rclavicle -3.57812e-015 -5.56597e-015
rhumerus 1.97612 -25.2786 26.6422
rradius 117.655
rwrist -68.3694
rhand -3.15121 -43.361
rfingers 7.12502
rthumb 22.5688 -72.0618
lclavicle -3.57812e-015 -5.56597e-015
lhumerus 35.0045 34.4122 -8.47963
lradius 29.5166
lwrist 31.7841
lhand -28.0238 -18.0032
lfingers 7.12502
lthumb -1.40892 11.9719
rfemur -6.40872 9.97661 -3.04164
rtibia 18.7482
rfoot 21.9674 -16.2633
rtoes -19.5636
lfemur -15.9765 1.39047 -28.8765
ltibia 13.2587
lfoot -13.5129 6.9325
ltoes 7.87359
120
root 4.67885 17.5636 2.02851 18.4791 1.64152 -1.76381
lowerback -9.02921 1.52064 14.0463
upperback -12.461 1.57714 0.340768
thorax -8.23072 -0.41446 -7.43391
lowerneck -2.46936 17.6171 10.9307
upperneck 9.18472 22.6555 3.85494
head 4.31775 11.7083 0.733373
rclavicle 6.75868e-015 -7.95139e-016
rhumerus 1.98655 -25.3475 26.4637
rradius 117.674
rwrist -68.3989
rhand -3.0187 -43.6131
rfingers 7.12502
rthumb 22.696 -72.2984
lclavicle 6.75868e-015 -7.95139e-016
lhumerus 35.4536 35.0322 -7.80445
lradius 29.3317
lwrist 30.9124
lhand -27.5405 -17.9915
lfingers 7.12502
lthumb -0.942077 11.9861
rfemur -6.58981 9.96202 -3.07119
rtibia 18.8075
rfoot 22.9696 -14.6159
rtoes -23.3384
lfemur -16.1462 1.44793 -28.9014
ltibia 13.4237
lfoot -13.6382 6.87138
ltoes 8.25428
121
root 4.67849 17.565 2.02424 18.4944 1.56447 -1.75756
lowerback -9.03544 1.52512 13.9139
upperback -12.4387 1.58566 0.365787
thorax -8.19384 -0.393615 -7.33201
lowerneck -2.3952 17.5666 10.7851
upperneck 9.06462 22.6091 3.86683
head 4.23593 11.6781 0.73094
rclavicle 1.59028e-014 -3.65764e-014
rhumerus 2.10251 -25.3968 26.1934
rradius 117.618
rwrist -68.3283
rhand -2.49571 -43.8897
rfingers 7.12502
rthumb 23.1979 -72.5127
lclavicle 1.59028e-014 -3.65764e-014
lhumerus 35.7805 35.2484 -7.36895
lradius 29.2243
lwrist 30.4481
lhand -27.0823 -18.1334
lfingers 7.12502
lthumb -0.499572 11.8458
rfemur -6.72219 9.95744 -3.08074
rtibia 18.8213
rfoot 23.3543 -14.2699
rtoes -24.423
lfemur -16.2829 1.54668 -28.949
ltibia 13.6025
lfoot -13.7069 6.89747
ltoes 8.03385
122
root 4.68136 17.5624 2.01883 18.4124 1.62477 -1.83163
lowerback -9.04481 1.49754 13.9947
upperback -12.4041 1.54251 0.3849
thorax -8.1618 -0.417128 -7.35704
lowerneck -2.37137 17.5369 10.7285
upperneck 9.16496 22.5658 3.95786
head 4.24659 11.6623 0.764782
rclavicle -4.57205e-015 7.95139e-016
rhumerus 2.18309 -25.4053 25.9497
rradius 117.605
rwrist -68.314
rhand -2.35758 -44.0578
rfingers 7.12502
rthumb 23.3304 -72.664
lclavicle -4.57205e-015 7.95139e-016
lhumerus 35.9711 35.2876 -7.14712
lradius 29.2163
lwrist 30.4267
lhand -26.6243 -18.2172
lfingers 7.12502
lthumb -0.057218 11.7625
rfemur -6.64907 9.80635 -2.92973
rtibia 18.8301
rfoot 22.7043 -15.9714
rtoes -21.4796
lfemur -16.3068 1.62875 -28.8952
ltibia 13.7588
lfoot -13.7311 6.91888
ltoes 7.4056
123
root 4.68633 17.5614 2.00853 18.3233 1.85663 -2.0277
lowerback -9.05278 1.4497 14.2919
upperback -12.3089 1.46058 0.4125
thorax -8.07821 -0.471181 -7.49462
lowerneck -2.55468 17.5353 10.7086
upperneck 9.35996 22.5243 4.07814
head 4.33275 11.6522 0.833223
rclavicle 5.1684e-015 2.78299e-014
rhumerus 2.10833 -25.4855 25.7767
rradius 117.65
rwrist -68.4467
rhand -2.8943 -44.2895
rfingers 7.12502
rthumb 22.8154 -72.9601
lclavicle 5.1684e-015 2.78299e-014
lhumerus 36.1199 35.3989 -6.99954
lradius 29.2628
lwrist 30.5826
lhand -26.5339 -18.2795
lfingers 7.12502
lthumb 0.0301216 11.7003
rfemur -6.4875 9.61502 -2.60205
rtibia 18.849
rfoot 24.4631 -12.086
rtoes -28.5511
lfemur -16.3607 1.56672 -28.6466
ltibia 13.8872
lfoot -13.7101 6.84968
ltoes 7.16278
124
root 4.69242 17.5634 1.99372 18.2897 1.95276 -2.06102
lowerback -9.04766 1.40113 14.3633
upperback -12.2174 1.38586 0.407839
thorax -7.99521 -0.504368 -7.54207
lowerneck -3.06401 17.5673 10.5426
upperneck 9.88346 22.457 4.50727
head 4.54039 11.6485 1.06635
rclavicle 6.36111e-015 -1.98785e-014
rhumerus 2.11043 -25.5882 25.5253
rradius 117.598
rwrist -68.5374
rhand -3.35563 -44.4316
rfingers 7.12502
rthumb 22.3726 -73.1561
lclavicle 6.36111e-015 -1.98785e-014
lhumerus 35.8462 35.178 -7.41496
lradius 29.4191
lwrist 31.0222
lhand -26.4509 -18.5032
lfingers 7.12502
lthumb 0.110241 11.4765
rfemur -6.46149 9.48407 -2.55784
rtibia 18.8329
rfoot 24.1109 -13.1772
rtoes -26.1665
lfemur -16.4668 1.57913 -28.6214
ltibia 14.0391
lfoot -13.745 6.74442
ltoes 7.18584
125
root 4.70095 17.562 1.97526 18.2082 1.93076 -1.96112
lowerback -8.939 1.32926 14.3096
upperback -12.1479 1.30275 0.381601
thorax -7.99342 -0.539532 -7.5453
lowerneck -3.66479 17.6067 10.4236
upperneck 11.0876 22.3544 5.04391
head 4.4988 11.6646 1.24924
rclavicle -2.46493e-014 3.57812e-014
rhumerus 2.23772 -25.5966 25.2075
rradius 117.51
rwrist -68.5055
rhand -3.7287 -44.198
rfingers 7.12502
rthumb 22.0145 -72.9651
lclavicle -2.46493e-014 3.57812e-014
lhumerus 35.5644 34.9946 -7.77915
lradius 29.5266
lwrist 31.1715
lhand -26.1092 -18.9114
lfingers 7.12502
lthumb 0.440264 11.0679
rfemur -6.41848 9.27485 -2.71845
rtibia 18.8017
rfoot 24.0799 -13.1275
rtoes -25.1632
lfemur -16.4924 1.72053 -28.8074
ltibia 14.2366
lfoot -13.8557 6.69894
ltoes 6.8378
126
root 4.7104 17.5613 1.95579 18.0573 2.09316 -2.03966
lowerback -8.74118 1.26902 14.5317
upperback -12.0794 1.24369 0.3808
thorax -8.05077 -0.588319 -7.6746
lowerneck -3.93109 17.5518 10.3852
upperneck 11.5496 22.2146 5.23883
head 4.6579 11.6204 1.35038
rclavicle -5.96354e-015 -2.14687e-014
rhumerus 2.27928 -25.5093 25.0267
rradius 117.468
rwrist -68.3956
rhand -4.10108 -43.8435
rfingers 7.12502
rthumb 21.6569 -72.6523
lclavicle -5.96354e-015 -2.14687e-014
lhumerus 35.4272 34.8644 -7.96364
lradius 29.6708
lwrist 31.4844
lhand -25.9654 -19.0991
lfingers 7.12502
lthumb 0.579182 10.8799
rfemur -6.26971 9.02842 -2.58953
rtibia 18.8334
rfoot 24.4053 -11.8105
rtoes -27.0006
lfemur -16.4754 1.67553 -28.7243
ltibia 14.4381
lfoot -13.9382 6.69071
ltoes 6.74704
127
root 4.7171 17.5658 1.93776 17.9602 2.20723 -2.17388
lowerback -8.52329 1.25881 14.741
upperback -12.0928 1.26416 0.38855
thorax -8.19574 -0.606341 -7.78509
lowerneck -3.64409 17.421 10.4813
upperneck 11.5241 22.0751 5.18277
head 4.61937 11.5516 1.2862
rclavicle 1.88845e-014 -3.26007e-014
rhumerus 2.40031 -25.33 24.7921
rradius 117.379
rwrist -68.1813
rhand -4.00036 -43.6563
rfingers 7.12502
rthumb 21.7536 -72.4539
lclavicle 1.88845e-014 -3.26007e-014
lhumerus 35.0105 34.2174 -8.59606
lradius 30.0113
lwrist 32.603
lhand -25.773 -19.2695
lfingers 7.12502
lthumb 0.76495 10.7088
rfemur -6.27844 8.92463 -2.41719
rtibia 18.921
rfoot 24.0008 -12.9982
rtoes -25.1883
lfemur -16.5179 1.54255 -28.5469
ltibia 14.6244
lfoot -14.0517 6.63379
ltoes 7.65668
128
root 4.71912 17.5696 1.92062 17.9693 2.11421 -2.22691
lowerback -8.37796 1.29262 14.7535
upperback -12.128 1.33752 0.385517
thorax -8.30211 -0.580629 -7.79574
lowerneck -3.34445 17.2848 10.5384
upperneck 11.4592 21.9349 5.12516
head 4.56196 11.4799 1.22176
rclavicle 5.96354e-016 1.19271e-014
rhumerus 2.56758 -25.2381 24.4125
rradius 117.296
rwrist -67.9699
rhand -3.58706 -43.7731
rfingers 7.12502
rthumb 22.1505 -72.5241
lclavicle 5.96354e-016 1.19271e-014
lhumerus 34.8839 33.8862 -8.84459
lradius 30.1707
lwrist 33.0788
lhand -24.9541 -19.7226
lfingers 7.12502
lthumb 1.55589 10.2514
rfemur -6.50401 8.89094 -2.4245
rtibia 19.0509
rfoot 23.3446 -14.5436
rtoes -22.0719
lfemur -16.6607 1.58203 -28.514
ltibia 14.7631
lfoot -14.0968 6.58852
ltoes 8.11236
129
root 4.71857 17.5705 1.90641 18.0048 2.05421 -2.17785
lowerback -8.38527 1.29691 14.6254
upperback -12.0713 1.33984 0.378571
thorax -8.22468 -0.560332 -7.7319
lowerneck -3.28705 17.1944 10.5266
upperneck 11.4507 21.8288 5.05985
head 4.55419 11.4237 1.19151
rclavicle 8.34896e-015 7.95139e-015
rhumerus 2.58966 -25.3175 24.1186
rradius 117.301
rwrist -67.891
rhand -3.42973 -43.8485
rfingers 7.12502
rthumb 22.3015 -72.5815
lclavicle 8.34896e-015 7.95139e-015
lhumerus 35.038 34.1189 -8.65866
lradius 30.1602
lwrist 32.9603
lhand -24.2165 -19.9436
lfingers 7.12502
lthumb 2.26823 10.0241
rfemur -6.7423 8.86509 -2.52533
rtibia 19.3032
rfoot 23.1384 -14.4306
rtoes -21.7565
lfemur -16.733 1.64087 -28.5943
ltibia 14.7724
lfoot -14.048 6.56645
ltoes 7.85028
